# xmcd
#
# Track frame offsets:
#	150
#	13500
#	25824
#	37587
#	50723
#	63144
#	76720
#	90348
#	104255
#	114548
#	123846
#	134474
#	149933
#	164922
#	186677
#	204390
#	218834
#	228102
#
# Disc length: 3236 seconds
#
# Revision: 0
# Processed by: cddbd v1.5.2PL0 Copyright (c) Steve Scherf et al.
# Submitted via: EasyCDDAExtractor 16.0.8.2
#
DISCID=f60ca212
DTITLE=Συλλογικός δίσκος - Oldies but goodies 06
DYEAR=2010
DGENRE=Ποικίλη
TTITLE0=The Idols - Ξαφνικά μ' αγαπάς [ελλ. απόδ. Αθ. Τσόγκας]
TTITLE1=The Sounds - Ποιος είναι αυτός που αγαπάς [ελλ. απόδ. Αθ. Τσόγκας]
TTITLE2=Teenagers - Φσσς μπόϊνγκ τουΐστ [Μίμης Πλέσσας]
TTITLE3=Χρυσός Τέρης - Όχι, δε σε συγχωρώ [ελλ. απόδ. Σάσα Μανέττα]
TTITLE4=Ελπίδα - Συγκρατήσου [Γ. Νιάρχος-Ν. Ελληναίος]
TTITLE5=Αντωνίου Νίκος - Γιατί αγάπη μου, γιατί [ελλ. απόδ. Αθ. Τσόγκας]
TTITLE6=Tammy - Μ' αγαπάς, δε μ' αγαπάς [ελλ. απόδ. Νότης Κύτταρης]
TTITLE7=Χρυσός Τέρης - Η ωραία Ελένη [Τώνης Βαβάτσικος-Σώτια Τσώτου]
TTITLE8=The Forminx - Ah! Say yeah [Β. Παπαθανασίου-Ν. Μαστοράκης]
TTITLE9=The Idols - Chirpy chirpy cheep cheep
TTITLE10=Μαρίνα - Οι αριθμοί [Γ. Ρωμανός-Δημ. Ιατρόπουλος]
TTITLE11=Χρυσός Τέρης - Νυχτώνει, ξημερώνει[Γ.Μουζάκης-Γ.Φερμάνογλου/Κ.Κοφινιώ
TTITLE11=της]
TTITLE12=Sky Rockets Combo - Midnight hour
TTITLE13=Γιοβάννα - Nathalie
TTITLE14=Τζορντανέλλι Λάκης - Εσένα θέλω μόνο (Cuba)[ελλ. απόδ. Σέβη Τηλιακού]
TTITLE15=The M.G.C. - I don't want to discuss it
TTITLE16=Άνευ ερμηνευτού - Athens hully gully [οργαν., Μίμης Πλέσσας]
TTITLE17=Sergio Endrigo - Και τώρα ναι (Adesso si)[ελλ. απόδ. Ν. Μαστοράκης]
EXTD=
EXTT0=
EXTT1=
EXTT2=
EXTT3=
EXTT4=
EXTT5=
EXTT6=
EXTT7=
EXTT8=
EXTT9=
EXTT10=
EXTT11=
EXTT12=
EXTT13=
EXTT14=
EXTT15=
EXTT16=
EXTT17=
PLAYORDER=
